<?xml version="1.0" encoding="utf-8"?>
<!-- Generator: Adobe Illustrator 19.2.0, SVG Export Plug-In . SVG Version: 6.00 Build 0)  -->
<svg version="1.1" id="Layer_1" xmlns="http://www.w3.org/2000/svg" xmlns:xlink="http://www.w3.org/1999/xlink" x="0px" y="0px"
	 viewBox="0 0 1003 205.1" style="enable-background:new 0 0 1003 205.1;" xml:space="preserve">
<style type="text/css">
	.st0{fill:#E7B22E;}
	.st1{fill:#E7B22D;}
	.st2{font-family:'Orbitron-Bold';}
	.st3{font-size:39px;}
	.st4{font-family:'Orbitron-Black';}
	.st5{font-size:74px;}
	.st6{letter-spacing:1;}
</style>
<g>
	<g>
		<path class="st0" d="M144.9,49.4c2.6,0.3,5.2,0.5,7.8,1c2.6,0.5,4.8,1.5,6.8,3.4c3.1,3.1,6.9,5.2,11.5,5.3c1.4,0,2.5,1.7,1.9,3.1
			c-0.5,1.3-1.1,2.5-2.4,3.4c-1.7,1.2-1.6,1.3-1.1,3.3c0.6,2.2,0,3.4-2.3,3.3c-3.2-0.1-6.2,0.4-9.3,1.2c-0.8,0.2-1.6,0.2-2.4,0.3
			c0,1.7,1.3,2.5,2.6,3.4c-3.8,0.9-6.5-0.6-8.9-3.1c-0.1,0.1-0.3,0.1-0.4,0.2c0.3,1.6,0.6,3.2,0.9,4.8c-0.3-0.2-1-0.4-1.5-0.9
			c-1.2-1-2.4-2.1-3.6-3.2c-1.1-1-1.7-1.1-2.9,0c-1,1-2,2.2-3,3.2c-2.6,2.7-5.7,4.6-9.1,6.2c-0.5,0.2-0.9,1-1.1,1.5
			c-1.5,4.9-2.2,10-2.5,15.1c-0.1,1.1-0.1,2.1-0.2,3.2c-0.4,5.1,0.7,9.9,2.5,14.6c1.2,3.2,2.4,6.3,3.7,9.4c0.6,1.4,1.6,2.7,2.6,3.9
			c0.9,1.1,2,1.3,3.4,0.8c2.1-0.8,4.3-1.5,6.5-2c2-0.4,3.2,0.7,3.2,2.7c0,0.4-0.1,0.9-0.4,1.1c-4.1,3.4-8.6,6.2-14.2,6.4
			c-4.2,0.1-8-0.8-11.3-3.6c-6.8-5.8-12.8-12.3-17.7-19.7c-0.8-1.1-0.8-2.1-0.2-3.5c1.8-3.9,2.2-8.1,2.4-12.3c0.1-1.1,0-2.1,0.1-3.5
			c-0.8,0.8-1.4,1.3-2,1.8c-0.2,0.2-0.4,0.6-0.3,0.8c0.7,7.3-2,13.4-6.1,19.2c-3.1,4.3-7,7.7-11.8,10c-5.2,2.5-10.6,3.3-16.3,2
			c-0.7-0.1-0.9-0.4-0.9-1.1c0-2.7,0-5.4,0-8.1c-0.1,0-0.2-0.1-0.3-0.1c-3.1-0.4-3.3-0.3-3.4,2.8c-0.3,5.7-0.8,11.5-0.9,17.2
			c-0.2,6.1-1.7,11.7-4.1,17.2c-0.6,1.4-1.2,2.9-1.6,4.4c-0.2,0.8-0.4,1.6-0.4,2.4c-0.1,2,0.7,2.5,2.5,2c0.8-0.2,1.5-0.5,2.3-0.6
			c1.2-0.2,2.2,0.2,2.9,1.2c1,1.4,1,2-0.5,3c-2.7,2-5.5,3.8-8.8,4.6c-1.2,0.3-2.7,0.3-3.7-0.2c-5.2-2.6-8.6-6.8-10.5-12.3
			c-0.1-0.4-0.2-1-0.1-1.4c1.1-3.2,0.3-6.4-0.3-9.5c-1.2-6.5-2.5-12.9-4-19.4c-1.6-6.7-1.4-13.2,0-19.9c2.2-10.1,5.2-19.8,10.6-28.7
			c3.2-5.2,7.4-9.3,12.6-12.5c7.6-4.7,16-7.5,24.7-9.4c2.1-0.5,4.1-1,6.1-1.7c2.6-0.9,4.8-2.6,6.5-4.7c3.4-3.9,7.6-5.4,12.6-5.3
			c4.3,0.1,8.5-0.3,12.5-2.3c0.9-0.4,1.9-0.8,2.7-1.4c0.5-0.3,0.9-1,1-1.5c0.7-2.8,3.4-4.2,6-3c1.1,0.5,2.2,1.3,3,2.3
			c0.9,1.2,1.7,0.8,2.6,0.2c0.3-0.2,0.5-0.5,0.7-0.8c1.3-1.7,2.2-1.7,3.5,0c0.4,0.5,0.8,1.1,1.1,1.7
			C144.4,48.4,144.7,48.9,144.9,49.4z"/>
		<path class="st0" d="M136.2,82.6c0.4,2.7,0.8,5.4,1.2,8c0.5,3.1,2.3,5,5.3,6.2c3.9,1.6,7.8,3.5,11.4,5.7c6.2,3.9,8.9,9.7,7.6,17
			c-0.3,1.8-0.8,3.6-1.4,5.3c-0.4,1.2-1.4,2.2-2.8,2.2c-1.4-0.1-2.3-1-2.8-2.2c-0.5-1.3-0.8-2.7-1.2-4c-0.3-0.8-0.5-1.8-1.1-2.4
			c-0.5-0.6-1.4-1.2-2.1-1.1c-4.9,0.5-9.5-0.8-14-2.4c-2.2-0.8-4.3-1.8-6.5-2.6c-0.9-0.4-1.4-1-1.4-1.9c-0.1-3-0.5-6.1-0.2-9.1
			c0.3-4.5,1-8.9,1.6-13.3c0.2-1.2,0.7-2.1,2-2.7C133.3,84.4,134.7,83.4,136.2,82.6z"/>
		<path class="st0" d="M72.2,135.4c9.9-0.2,18.1-4.1,24.9-11.3c2.9,2.3,5.4,5.1,7.1,8.4c1.4,2.6,2.6,5.4,3.9,8.1
			c0.5,1.2,1.3,1.6,2.6,1.3c2.2-0.4,4.4-0.8,6.6-1c1.1-0.1,2.3,0.1,3.3,0.5c2.1,0.8,2.4,3.3,0.6,4.6c-5.4,3.9-11.5,6.3-18.2,6.6
			c-2.3,0.1-4.1-0.7-6-2.1c-4.9-3.6-10.1-6.9-15.3-10.2C78.7,138.5,75.4,137.1,72.2,135.4z"/>
	</g>
	<g>
		<path class="st0" d="M102.4,6.3c52.3,0,94.8,42.5,94.8,94.8s-42.5,94.8-94.8,94.8S7.6,153.4,7.6,101.1S50.1,6.3,102.4,6.3
			 M102.4,0C46.5,0,1.3,45.3,1.3,101.1c0,55.9,45.3,101.1,101.1,101.1S203.5,157,203.5,101.1C203.5,45.3,158.2,0,102.4,0L102.4,0z"
			/>
	</g>
	<path class="st0" d="M0,204.9c1.5-1.1,3-2.1,4.5-3.2c3.7-2.9,7.5-5.8,11.1-8.9c2.2-1.8,4-3.9,6.1-5.9c0.9-0.9,2.1-0.9,2.9,0.1
		c0.9,1,2,2,2.4,3.4c0.2,0.6,0.6,0.5,1.1,0.3c2.2-1.1,4.3-2.2,6.5-3.2c3.1-1.5,6.2-3,9.4-4.4c4.2-1.9,8.6-3.7,12.8-5.7
		c2.8-1.3,5.5-2.9,8.3-4.3c2.6-1.3,5.2-2.5,7.9-3.8c2.3-1.1,4.7-2.2,7-3.3c2.9-1.4,5.7-2.7,8.6-4.1c1.8-0.9,3.5-1.8,5.3-2.7
		c1.9-0.9,3.9-1.8,5.8-2.7c4.5-2.1,8.9-4.1,13.4-6.2c6.9-3.2,13.7-6.5,20.5-9.8c2.7-1.3,5.4-2.5,8.2-3.8c0.2-0.1,0.5-0.3,0.6-0.5
		c0.7-1.1,1.3-2.3,2-3.4c0.2-0.4,0.6-0.7,1-0.9c3.6-1.7,7.2-3.3,10.8-4.9c0.4-0.2,0.9-0.1,1.4,0c-1.7,1.3-3.4,2.4-4.6,4.1
		c0.1,0.1,0.1,0.2,0.2,0.3c0.9-0.4,1.9-0.8,2.8-1.3c3.7-1.8,7.4-3.6,11.1-5.4c0.3-0.2,0.6-0.5,0.8-0.7c2.1-2.8,3.7-5.9,5.1-9.1
		c0.2-0.5,0.7-0.9,1.2-1.1c1.9-0.8,3.9-1.5,5.9-2.4c4.5-1.9,8.9-3.9,13.4-5.9c0.8-0.4,1.7-0.8,2.5-1.1c-2.7,3.1-6.1,5.3-8.5,8.6
		c2-0.9,3.9-2,6.3-2c-0.2,0.1-0.3,0.2-0.5,0.3c-2.5,1.1-4.6,2.8-6.6,4.6c-0.7,0.7-0.1,1.4,0,2.1c0.1,0.3,0.7,0.8,1.1,0.8
		c2.4,0,4.8,0,7.2-0.2c0.8-0.1,1.7-0.5,2.6-0.7c-0.4,0.3-0.8,0.6-1.2,0.8c-3.5,1.9-6.9,3.8-10.4,5.7c-2.1,1.1-4.3,2.1-6.4,3.1
		c-0.3,0.1-0.6,0.1-0.9,0.1c-2.4-0.1-4.9-0.3-7.3-0.4c-2.3,0-4.6,0.3-6.6,1.6c-1.5,1-3.2,1.5-4.8,2.2c-2.3,1-4.5,2.1-6.8,3.1
		c-0.2,0.1-0.3,0.2-0.4,0.3c0,0.1,0,0.2,0,0.3c0.8,0,1.5,0.1,2.3-0.1c1.3-0.2,2.6-0.6,3.8-0.9c0.3-0.1,0.7-0.1,1-0.2
		c0,0.1,0.1,0.2,0.1,0.3c-0.3,0.2-0.5,0.3-0.8,0.5c-3.6,1.7-7.2,3.5-10.8,5.2c-0.3,0.1-0.7,0.2-1,0.2c-1.3,0-2.6-0.1-3.9-0.2
		c-1.2-0.1-2.3,0.1-3.3,0.7c-1,0.6-2.1,1.2-3.1,1.7c-0.6,0.3-1.2,0.6-1.8,0.9c-5.8,2.7-11.7,5.4-17.5,8.1c-3.3,1.5-6.6,3-9.9,4.6
		c-2.6,1.3-5.2,2.6-7.8,3.9c-5.1,2.4-10.2,4.8-15.3,7.2c-2.2,1.1-4.5,2-6.7,3.1c-3,1.4-5.9,2.9-8.9,4.3c-1.3,0.6-2.7,1-4,1.6
		c-5,2.4-10.1,4.8-15.1,7.2c-4.4,2.2-8.9,4.4-13.3,6.5c-2.4,1.1-4.8,2.2-7.2,3.3c-0.3,0.2-0.7,0.4-0.9,0.7c-0.1,0.2-0.1,0.6,0,0.8
		c1.1,1.7,1.2,3.5,0.9,5.4c-0.1,0.7-0.6,1.1-1.4,1.1c-1.6,0-3.3,0.1-4.9,0.3c-2.3,0.2-4.5,0.4-6.7,0.8c-4.1,0.8-8.3,1.7-12.4,2.6
		c-1.2,0.3-2.5,0.7-3.7,1.1C0.1,205,0,205,0,204.9z"/>
</g>
<text transform="matrix(1 0 0 1 589.111 89.9041)" class="st1 st2 st3">THE</text>
<text transform="matrix(1 0 0 1 269.6546 166.8812)" class="st1 st4 st5 st6">HOUSING GAMES</text>
</svg>
