<?xml version="1.0" encoding="utf-8"?>
<!-- Generator: Adobe Illustrator 19.2.0, SVG Export Plug-In . SVG Version: 6.00 Build 0)  -->
<svg version="1.1" id="Layer_1" xmlns="http://www.w3.org/2000/svg" xmlns:xlink="http://www.w3.org/1999/xlink" x="0px" y="0px"
	 viewBox="0 0 164.4 193.1" style="enable-background:new 0 0 164.4 193.1;" xml:space="preserve">
<style type="text/css">
	.st0{fill:#E7B22E;}
	.st1{font-family:'Orbitron-Regular';}
	.st2{font-size:6px;}
	.st3{font-family:'Orbitron-Bold';}
	.st4{font-size:12px;}
</style>
<rect width="164.4" height="193.1"/>
<g>
	<g>
		<path class="st0" d="M109.5,44.6c1.7,0.2,3.3,0.3,4.9,0.6s3,1,4.3,2.2c2,2,4.4,3.3,7.3,3.3c0.9,0,1.6,1.1,1.2,1.9
			c-0.3,0.8-0.7,1.6-1.5,2.1c-1.1,0.8-1,0.8-0.7,2.1c0.4,1.4,0,2.2-1.5,2.1c-2-0.1-4,0.2-5.9,0.8c-0.5,0.1-1,0.1-1.5,0.2
			c0,1.1,0.8,1.6,1.6,2.2c-2.4,0.6-4.1-0.4-5.7-2c-0.1,0-0.2,0.1-0.2,0.1c0.2,1,0.4,2,0.6,3c-0.2-0.1-0.6-0.3-1-0.6
			c-0.8-0.6-1.6-1.3-2.3-2c-0.7-0.7-1.1-0.7-1.8,0c-0.7,0.7-1.3,1.4-1.9,2c-1.6,1.7-3.6,2.9-5.7,3.9c-0.3,0.2-0.6,0.6-0.7,1
			c-1,3.1-1.4,6.3-1.6,9.6c0,0.7,0,1.3-0.1,2c-0.3,3.2,0.4,6.3,1.6,9.3c0.8,2,1.5,4,2.4,6c0.4,0.9,1,1.7,1.6,2.5
			c0.5,0.7,1.3,0.8,2.2,0.5c1.3-0.5,2.7-1,4.1-1.3c1.2-0.3,2,0.5,2.1,1.7c0,0.2-0.1,0.5-0.3,0.7c-2.6,2.2-5.5,3.9-9,4
			c-2.6,0.1-5.1-0.5-7.2-2.3c-4.3-3.6-8.1-7.8-11.2-12.5c-0.5-0.7-0.5-1.3-0.1-2.2c1.1-2.4,1.4-5.1,1.5-7.8c0-0.7,0-1.4,0-2.2
			c-0.5,0.5-0.9,0.8-1.2,1.2c-0.1,0.1-0.2,0.4-0.2,0.5c0.5,4.6-1.3,8.5-3.9,12.1c-2,2.7-4.4,4.9-7.4,6.3c-3.3,1.6-6.7,2.1-10.3,1.3
			c-0.4-0.1-0.6-0.3-0.6-0.7c0-1.7,0-3.4,0-5.1c-0.1,0-0.1,0-0.2-0.1c-2-0.2-2.1-0.2-2.2,1.8c-0.2,3.6-0.5,7.3-0.6,10.9
			c-0.1,3.8-1.1,7.4-2.6,10.9c-0.4,0.9-0.7,1.8-1,2.8c-0.2,0.5-0.2,1-0.3,1.5c0,1.2,0.4,1.6,1.6,1.3c0.5-0.1,1-0.3,1.5-0.4
			c0.7-0.1,1.4,0.1,1.8,0.8c0.7,0.9,0.6,1.3-0.3,1.9c-1.7,1.2-3.5,2.4-5.6,2.9c-0.7,0.2-1.7,0.2-2.3-0.1c-3.3-1.6-5.5-4.3-6.6-7.8
			c-0.1-0.3-0.1-0.6-0.1-0.9c0.7-2,0.2-4-0.2-6c-0.8-4.1-1.6-8.2-2.5-12.3c-1-4.2-0.9-8.4,0-12.6c1.4-6.4,3.3-12.6,6.7-18.2
			c2-3.3,4.7-5.9,8-7.9c4.8-3,10.1-4.8,15.6-6c1.3-0.3,2.6-0.6,3.9-1.1c1.7-0.6,3-1.7,4.1-3c2.1-2.5,4.8-3.4,8-3.3
			c2.7,0.1,5.4-0.2,7.9-1.4c0.6-0.3,1.2-0.5,1.7-0.9c0.3-0.2,0.5-0.6,0.6-1c0.4-1.7,2.1-2.7,3.8-1.9c0.7,0.3,1.4,0.9,1.9,1.5
			c0.6,0.7,1.1,0.5,1.6,0.1c0.2-0.1,0.3-0.3,0.4-0.5c0.8-1.1,1.4-1.1,2.2,0c0.3,0.3,0.5,0.7,0.7,1.1
			C109.2,43.9,109.4,44.3,109.5,44.6z"/>
		<path class="st0" d="M104,65.6c0.3,1.7,0.5,3.4,0.8,5.1c0.3,1.9,1.4,3.2,3.3,3.9c2.5,1,5,2.2,7.2,3.6c3.9,2.5,5.6,6.1,4.8,10.8
			c-0.2,1.1-0.5,2.2-0.9,3.3c-0.3,0.8-0.9,1.4-1.8,1.4s-1.5-0.6-1.8-1.4s-0.5-1.7-0.8-2.5c-0.2-0.5-0.3-1.1-0.7-1.5
			c-0.3-0.4-0.9-0.8-1.3-0.7c-3.1,0.3-6-0.5-8.9-1.5c-1.4-0.5-2.7-1.1-4.1-1.7c-0.6-0.2-0.9-0.6-0.9-1.2c-0.1-1.9-0.3-3.9-0.2-5.8
			c0.2-2.8,0.6-5.6,1-8.4c0.1-0.8,0.4-1.4,1.2-1.7C102.2,66.7,103.1,66.1,104,65.6z"/>
		<path class="st0" d="M63.5,99c6.3-0.1,11.4-2.6,15.7-7.1c1.9,1.5,3.4,3.2,4.5,5.3c0.9,1.7,1.7,3.4,2.5,5.1c0.3,0.8,0.8,1,1.6,0.8
			c1.4-0.3,2.8-0.5,4.2-0.6c0.7-0.1,1.5,0.1,2.1,0.3c1.3,0.5,1.5,2.1,0.4,2.9c-3.4,2.5-7.3,4-11.5,4.2c-1.4,0.1-2.6-0.4-3.8-1.3
			c-3.1-2.3-6.4-4.4-9.7-6.4C67.6,101,65.6,100.1,63.5,99z"/>
	</g>
	<g>
		<path class="st0" d="M82.6,17.3c33.1,0,60,26.9,60,60s-26.9,60-60,60s-60-26.9-60-60S49.5,17.3,82.6,17.3 M82.6,13.3
			c-35.3,0-64,28.7-64,64s28.7,64,64,64s64-28.7,64-64S118,13.3,82.6,13.3L82.6,13.3z"/>
	</g>
	<path class="st0" d="M17.8,143c0.9-0.7,1.9-1.3,2.8-2c2.4-1.8,4.8-3.7,7.1-5.6c1.4-1.1,2.6-2.5,3.8-3.7c0.6-0.6,1.3-0.5,1.8,0.1
		c0.6,0.7,1.3,1.2,1.5,2.1c0.1,0.4,0.4,0.3,0.7,0.2c1.4-0.7,2.7-1.4,4.1-2c2-0.9,4-1.9,5.9-2.8c2.7-1.2,5.4-2.3,8.1-3.6
		c1.8-0.8,3.5-1.9,5.3-2.7c1.6-0.8,3.3-1.6,5-2.4c1.5-0.7,3-1.4,4.4-2.1c1.8-0.9,3.6-1.7,5.4-2.6c1.1-0.5,2.2-1.2,3.4-1.7
		c1.2-0.6,2.5-1.1,3.7-1.7c2.8-1.3,5.6-2.6,8.5-3.9c4.3-2.1,8.7-4.1,13-6.2c1.7-0.8,3.4-1.6,5.2-2.4c0.1-0.1,0.3-0.2,0.4-0.3
		c0.4-0.7,0.8-1.5,1.2-2.2c0.1-0.2,0.4-0.5,0.6-0.6c2.3-1.1,4.5-2.1,6.8-3.1c0.3-0.1,0.6-0.1,0.9,0c-1.1,0.8-2.2,1.5-2.9,2.6
		c0,0.1,0.1,0.1,0.1,0.2c0.6-0.3,1.2-0.5,1.8-0.8c2.3-1.1,4.7-2.3,7-3.4c0.2-0.1,0.4-0.3,0.5-0.5c1.3-1.8,2.3-3.7,3.2-5.8
		c0.1-0.3,0.5-0.6,0.8-0.7c1.2-0.5,2.5-1,3.7-1.5c2.8-1.2,5.7-2.5,8.5-3.8c0.5-0.2,1-0.5,1.6-0.7c-1.7,1.9-3.9,3.3-5.4,5.4
		c1.3-0.5,2.5-1.3,4-1.3c-0.1,0.1-0.2,0.1-0.3,0.2c-1.6,0.7-2.9,1.7-4.2,2.9c-0.5,0.4-0.1,0.9,0,1.3c0,0.2,0.4,0.5,0.7,0.5
		c1.5,0,3.1,0,4.6-0.1c0.5,0,1-0.3,1.6-0.4c-0.3,0.2-0.5,0.4-0.8,0.5c-2.2,1.2-4.4,2.4-6.6,3.6c-1.3,0.7-2.7,1.3-4.1,2
		c-0.2,0.1-0.4,0.1-0.6,0.1c-1.5-0.1-3.1-0.2-4.6-0.2s-2.9,0.2-4.2,1c-0.9,0.6-2,0.9-3.1,1.4c-1.4,0.7-2.9,1.3-4.3,2
		c-0.1,0-0.2,0.1-0.3,0.2c0,0.1,0,0.1,0,0.2c0.5,0,1,0,1.4,0c0.8-0.2,1.6-0.4,2.4-0.6c0.2-0.1,0.4-0.1,0.7-0.1c0,0.1,0,0.1,0.1,0.2
		c-0.2,0.1-0.3,0.2-0.5,0.3c-2.3,1.1-4.5,2.2-6.8,3.3c-0.2,0.1-0.4,0.1-0.6,0.1c-0.8,0-1.6-0.1-2.4-0.1c-0.7-0.1-1.5,0-2.1,0.4
		c-0.7,0.4-1.3,0.7-2,1.1c-0.4,0.2-0.7,0.4-1.1,0.5c-3.7,1.7-7.4,3.4-11.1,5.2c-2.1,1-4.2,1.9-6.2,2.9c-1.7,0.8-3.3,1.7-4.9,2.5
		c-3.2,1.5-6.4,3.1-9.7,4.6c-1.4,0.7-2.9,1.3-4.3,1.9c-1.9,0.9-3.7,1.8-5.6,2.7c-0.8,0.4-1.7,0.6-2.5,1c-3.2,1.5-6.4,3-9.5,4.6
		c-2.8,1.4-5.6,2.8-8.4,4.1c-1.5,0.7-3,1.4-4.5,2.1c-0.2,0.1-0.4,0.2-0.6,0.4c-0.1,0.1-0.1,0.4,0,0.5c0.7,1.1,0.8,2.2,0.6,3.4
		c-0.1,0.4-0.4,0.7-0.9,0.7c-1,0-2.1,0.1-3.1,0.2c-1.4,0.1-2.9,0.3-4.3,0.5c-2.6,0.5-5.2,1.1-7.8,1.6c-0.8,0.2-1.6,0.5-2.3,0.7
		C17.9,143.1,17.9,143,17.8,143z"/>
</g>
<text transform="matrix(1 0 0 1 75.0718 165.532)" class="st0 st1 st2">THE</text>
<text transform="matrix(1 0 0 1 23.9951 178.3237)" class="st0 st3 st4">HOUSING GAMES</text>
</svg>
